<?xml version="1.0" encoding="iso-8859-1"?>
<!-- Generator: Adobe Illustrator 29.4.0, SVG Export Plug-In . SVG Version: 9.03 Build 0)  -->
<svg version="1.1" id="Layer_1" xmlns="http://www.w3.org/2000/svg" xmlns:xlink="http://www.w3.org/1999/xlink" x="0px" y="0px"
	 viewBox="0 0 190.028 23.46" style="enable-background:new 0 0 190.028 23.46;" xml:space="preserve">
<linearGradient id="SVGID_1_" gradientUnits="userSpaceOnUse" x1="113.2481" y1="12.6946" x2="-7.0475" y2="12.6946" gradientTransform="matrix(1 0 0 -1 0 25)">
	<stop  offset="0" style="stop-color:#FC7D01"/>
	<stop  offset="1" style="stop-color:#FE5805"/>
	<stop  offset="1" style="stop-color:#000000"/>
</linearGradient>
<path style="fill:url(#SVGID_1_);" d="M11.445,22.246H0V2.364h11.445v3.45H4.214v4.361h6.735v3.45H4.214v5.125h7.232v3.478V22.246z"
	/>
<linearGradient id="SVGID_00000077325549860783478780000015645714515106477991_" gradientUnits="userSpaceOnUse" x1="113.2481" y1="13.4076" x2="-7.0475" y2="13.4076" gradientTransform="matrix(1 0 0 -1 0 25)">
	<stop  offset="0" style="stop-color:#FC7D01"/>
	<stop  offset="1" style="stop-color:#FE5805"/>
	<stop  offset="1" style="stop-color:#000000"/>
</linearGradient>
<path style="fill:url(#SVGID_00000077325549860783478780000015645714515106477991_);" d="M23.673,10.157h-3.588v12.089h-4.149
	V10.157h-2.282V8.161l2.282-1.113V5.934c0-1.297,0.221-2.3,0.662-3.027c0.442-0.718,1.058-1.224,1.858-1.527
	s1.748-0.442,2.852-0.442c0.81,0,1.546,0.064,2.199,0.193c0.662,0.129,1.205,0.276,1.619,0.442l-1.058,3.045
	c-0.322-0.101-0.662-0.193-1.03-0.276c-0.368-0.083-0.8-0.12-1.279-0.12c-0.58,0-1.003,0.175-1.27,0.524
	c-0.267,0.35-0.405,0.791-0.405,1.343v0.948h3.588v3.11V10.157z"/>
<linearGradient id="SVGID_00000069387918022530712450000017901816593789787527_" gradientUnits="userSpaceOnUse" x1="113.2481" y1="10.4911" x2="-7.0475" y2="10.4911" gradientTransform="matrix(1 0 0 -1 0 25)">
	<stop  offset="0" style="stop-color:#FC7D01"/>
	<stop  offset="1" style="stop-color:#FE5805"/>
	<stop  offset="1" style="stop-color:#000000"/>
</linearGradient>
<path style="fill:url(#SVGID_00000069387918022530712450000017901816593789787527_);" d="M34.538,6.762
	c0.212,0,0.451,0.009,0.727,0.037c0.276,0.018,0.497,0.055,0.672,0.092l-0.313,3.892c-0.138-0.046-0.331-0.083-0.58-0.101
	c-0.248-0.018-0.469-0.037-0.644-0.037c-0.534,0-1.058,0.064-1.555,0.202c-0.506,0.138-0.957,0.359-1.352,0.662
	c-0.396,0.304-0.718,0.699-0.948,1.196s-0.35,1.095-0.35,1.812v7.738h-4.149V7.047h3.137L29.8,9.605h0.202
	c0.304-0.515,0.672-0.994,1.122-1.417c0.451-0.432,0.957-0.773,1.536-1.03c0.58-0.258,1.196-0.386,1.868-0.386L34.538,6.762z"/>
<linearGradient id="SVGID_00000175317109795598167370000000409893485790745499_" gradientUnits="userSpaceOnUse" x1="113.2481" y1="10.3623" x2="-7.0475" y2="10.3623" gradientTransform="matrix(1 0 0 -1 0 25)">
	<stop  offset="0" style="stop-color:#FC7D01"/>
	<stop  offset="1" style="stop-color:#FE5805"/>
	<stop  offset="1" style="stop-color:#000000"/>
</linearGradient>
<path style="fill:url(#SVGID_00000175317109795598167370000000409893485790745499_);" d="M44.972,6.762
	c1.408,0,2.613,0.267,3.634,0.81c1.012,0.543,1.803,1.325,2.355,2.346c0.552,1.021,0.828,2.273,0.828,3.754v2.015h-9.808
	c0.046,1.168,0.396,2.088,1.058,2.751c0.653,0.662,1.573,1.003,2.742,1.003c0.966,0,1.858-0.101,2.668-0.304
	c0.81-0.202,1.638-0.497,2.493-0.902v3.211c-0.754,0.368-1.536,0.644-2.355,0.819c-0.819,0.175-1.812,0.258-2.981,0.258
	c-1.527,0-2.871-0.285-4.048-0.846c-1.178-0.561-2.098-1.417-2.76-2.567c-0.662-1.15-1.003-2.604-1.003-4.352
	c0-1.748,0.304-3.257,0.902-4.444c0.598-1.187,1.444-2.07,2.521-2.668c1.076-0.598,2.337-0.892,3.763-0.892L44.972,6.762z
	 M44.999,9.706c-0.81,0-1.472,0.258-2.006,0.773s-0.837,1.325-0.92,2.438h5.824c-0.009-0.616-0.12-1.168-0.331-1.647
	c-0.212-0.478-0.534-0.865-0.948-1.141c-0.423-0.285-0.957-0.423-1.61-0.423L44.999,9.706z"/>
<linearGradient id="SVGID_00000006689616674014939770000014750215036827227266_" gradientUnits="userSpaceOnUse" x1="113.2481" y1="10.4957" x2="-7.0475" y2="10.4957" gradientTransform="matrix(1 0 0 -1 0 25)">
	<stop  offset="0" style="stop-color:#FC7D01"/>
	<stop  offset="1" style="stop-color:#FE5805"/>
	<stop  offset="1" style="stop-color:#000000"/>
</linearGradient>
<path style="fill:url(#SVGID_00000006689616674014939770000014750215036827227266_);" d="M63.787,6.762
	c1.619,0,2.926,0.442,3.919,1.325c0.984,0.883,1.481,2.3,1.481,4.251v9.909h-4.149v-8.878c0-1.086-0.193-1.904-0.589-2.457
	c-0.396-0.552-1.012-0.828-1.858-0.828c-1.27,0-2.135,0.432-2.595,1.288c-0.46,0.856-0.69,2.107-0.69,3.726v7.149h-4.149V7.047
	h3.165l0.561,1.941h0.23c0.322-0.524,0.736-0.948,1.214-1.279c0.488-0.322,1.021-0.57,1.619-0.718
	C62.545,6.836,63.152,6.762,63.787,6.762z"/>
<linearGradient id="SVGID_00000119806028639505777930000013657121230920416158_" gradientUnits="userSpaceOnUse" x1="192.243" y1="12.6946" x2="71.9382" y2="12.6946" gradientTransform="matrix(1 0 0 -1 0 25)">
	<stop  offset="0" style="stop-color:#FC7D01"/>
	<stop  offset="1" style="stop-color:#FE5805"/>
	<stop  offset="1" style="stop-color:#000000"/>
</linearGradient>
<path style="fill:url(#SVGID_00000119806028639505777930000013657121230920416158_);" d="M87.432,5.594
	c-0.81,0-1.518,0.156-2.144,0.469c-0.616,0.313-1.141,0.764-1.564,1.352s-0.745,1.297-0.957,2.134
	c-0.221,0.837-0.322,1.776-0.322,2.815c0,1.408,0.175,2.604,0.524,3.597c0.35,0.994,0.892,1.748,1.628,2.273
	c0.736,0.524,1.684,0.782,2.843,0.782c0.81,0,1.619-0.092,2.429-0.276c0.81-0.184,1.693-0.442,2.65-0.773v3.533
	c-0.883,0.359-1.748,0.626-2.595,0.782c-0.856,0.156-1.812,0.239-2.871,0.239c-2.052,0-3.735-0.423-5.051-1.27
	c-1.316-0.846-2.3-2.033-2.935-3.561c-0.635-1.527-0.948-3.312-0.948-5.355c0-1.509,0.202-2.88,0.616-4.131
	c0.405-1.251,1.003-2.337,1.794-3.248c0.791-0.92,1.766-1.619,2.926-2.125s2.493-0.745,4.002-0.745c0.984,0,1.978,0.129,2.972,0.377
	c0.994,0.248,1.941,0.589,2.852,1.03l-1.362,3.423c-0.745-0.35-1.49-0.662-2.245-0.92c-0.754-0.267-1.49-0.396-2.217-0.396
	L87.432,5.594z"/>
<linearGradient id="SVGID_00000114771467459621307960000006559348109353007800_" gradientUnits="userSpaceOnUse" x1="192.243" y1="10.3715" x2="71.9382" y2="10.3715" gradientTransform="matrix(1 0 0 -1 0 25)">
	<stop  offset="0" style="stop-color:#FC7D01"/>
	<stop  offset="1" style="stop-color:#FE5805"/>
	<stop  offset="1" style="stop-color:#000000"/>
</linearGradient>
<path style="fill:url(#SVGID_00000114771467459621307960000006559348109353007800_);" d="M102.64,6.735
	c2.042,0,3.607,0.442,4.692,1.334c1.086,0.892,1.628,2.236,1.628,4.048v10.13h-2.898l-0.8-2.07h-0.11
	c-0.432,0.543-0.883,0.984-1.334,1.334c-0.451,0.34-0.975,0.598-1.564,0.764c-0.589,0.166-1.306,0.248-2.153,0.248
	c-0.902,0-1.702-0.175-2.411-0.515c-0.708-0.35-1.27-0.874-1.684-1.582c-0.405-0.708-0.616-1.619-0.616-2.714
	c0-1.61,0.57-2.806,1.702-3.57s2.834-1.187,5.097-1.27l2.641-0.083v-0.662c0-0.8-0.212-1.38-0.626-1.757
	c-0.414-0.368-0.994-0.561-1.739-0.561s-1.454,0.101-2.162,0.313c-0.708,0.212-1.417,0.469-2.125,0.791l-1.371-2.797
	c0.81-0.423,1.711-0.764,2.714-1.003c1.003-0.248,2.033-0.368,3.11-0.368L102.64,6.735z M104.839,15.208l-1.601,0.055
	c-1.343,0.037-2.273,0.276-2.797,0.718s-0.782,1.03-0.782,1.757c0,0.635,0.184,1.086,0.561,1.352
	c0.368,0.267,0.856,0.405,1.454,0.405c0.892,0,1.638-0.267,2.254-0.791c0.616-0.524,0.92-1.27,0.92-2.245v-1.251L104.839,15.208z"/>
<linearGradient id="SVGID_00000109019876936755532840000003760826130335665041_" gradientUnits="userSpaceOnUse" x1="192.243" y1="10.3439" x2="71.9382" y2="10.3439" gradientTransform="matrix(1 0 0 -1 0 25)">
	<stop  offset="0" style="stop-color:#FC7D01"/>
	<stop  offset="1" style="stop-color:#FE5805"/>
	<stop  offset="1" style="stop-color:#000000"/>
</linearGradient>
<path style="fill:url(#SVGID_00000109019876936755532840000003760826130335665041_);" d="M116.845,22.256l-5.796-15.199h4.333
	l2.935,8.658c0.166,0.506,0.294,1.04,0.386,1.601c0.092,0.561,0.156,1.067,0.193,1.509h0.11c0.028-0.478,0.092-0.994,0.193-1.536
	c0.101-0.543,0.239-1.067,0.414-1.573l2.926-8.658h4.333l-5.796,15.199h-4.26L116.845,22.256z"/>
<linearGradient id="SVGID_00000175311677657928362620000008202822653079069345_" gradientUnits="userSpaceOnUse" x1="192.243" y1="10.3715" x2="71.9382" y2="10.3715" gradientTransform="matrix(1 0 0 -1 0 25)">
	<stop  offset="0" style="stop-color:#FC7D01"/>
	<stop  offset="1" style="stop-color:#FE5805"/>
	<stop  offset="1" style="stop-color:#000000"/>
</linearGradient>
<path style="fill:url(#SVGID_00000175311677657928362620000008202822653079069345_);" d="M135.302,6.735
	c2.042,0,3.607,0.442,4.692,1.334c1.086,0.892,1.628,2.236,1.628,4.048v10.13h-2.898l-0.8-2.07h-0.11
	c-0.432,0.543-0.883,0.984-1.334,1.334c-0.451,0.34-0.975,0.598-1.564,0.764c-0.589,0.166-1.306,0.248-2.153,0.248
	c-0.902,0-1.702-0.175-2.411-0.515c-0.708-0.35-1.27-0.874-1.684-1.582c-0.405-0.708-0.616-1.619-0.616-2.714
	c0-1.61,0.57-2.806,1.702-3.57c1.132-0.764,2.834-1.187,5.097-1.27l2.641-0.083v-0.662c0-0.8-0.212-1.38-0.626-1.757
	c-0.414-0.368-0.994-0.561-1.739-0.561c-0.745,0-1.454,0.101-2.162,0.313c-0.708,0.212-1.417,0.469-2.125,0.791l-1.371-2.797
	c0.81-0.423,1.711-0.764,2.714-1.003c1.003-0.248,2.033-0.368,3.11-0.368L135.302,6.735z M137.5,15.208l-1.601,0.055
	c-1.343,0.037-2.273,0.276-2.797,0.718c-0.524,0.442-0.782,1.03-0.782,1.757c0,0.635,0.184,1.086,0.561,1.352
	c0.368,0.267,0.856,0.405,1.454,0.405c0.892,0,1.638-0.267,2.254-0.791c0.616-0.524,0.92-1.27,0.92-2.245v-1.251L137.5,15.208z"/>
<linearGradient id="SVGID_00000109714991826046111380000013212647468982214292_" gradientUnits="userSpaceOnUse" x1="192.243" y1="10.3439" x2="71.9382" y2="10.3439" gradientTransform="matrix(1 0 0 -1 0 25)">
	<stop  offset="0" style="stop-color:#FC7D01"/>
	<stop  offset="1" style="stop-color:#FE5805"/>
	<stop  offset="1" style="stop-color:#000000"/>
</linearGradient>
<path style="fill:url(#SVGID_00000109714991826046111380000013212647468982214292_);" d="M156.472,22.256h-12.007v-2.447
	l7.048-9.587h-6.624V7.057h11.344v2.696l-6.854,9.338h7.094L156.472,22.256L156.472,22.256z"/>
<linearGradient id="SVGID_00000171697590314499537510000007803514974455284873_" gradientUnits="userSpaceOnUse" x1="192.243" y1="10.3531" x2="71.9382" y2="10.3531" gradientTransform="matrix(1 0 0 -1 0 25)">
	<stop  offset="0" style="stop-color:#FC7D01"/>
	<stop  offset="1" style="stop-color:#FE5805"/>
	<stop  offset="1" style="stop-color:#000000"/>
</linearGradient>
<path style="fill:url(#SVGID_00000171697590314499537510000007803514974455284873_);" d="M173.29,14.629
	c0,1.27-0.166,2.392-0.506,3.377c-0.34,0.975-0.837,1.803-1.481,2.484c-0.653,0.672-1.426,1.187-2.337,1.527
	c-0.911,0.34-1.941,0.515-3.082,0.515c-1.067,0-2.052-0.175-2.944-0.515c-0.892-0.35-1.665-0.856-2.328-1.527
	c-0.653-0.672-1.168-1.5-1.527-2.484c-0.359-0.984-0.534-2.107-0.534-3.377c0-1.684,0.304-3.11,0.902-4.287
	c0.598-1.168,1.454-2.061,2.558-2.668c1.104-0.607,2.429-0.911,3.956-0.911c1.426,0,2.687,0.304,3.791,0.911s1.969,1.5,2.595,2.668
	s0.948,2.595,0.948,4.287L173.29,14.629z M162.783,14.629c0,0.994,0.11,1.84,0.322,2.512c0.221,0.681,0.561,1.196,1.021,1.536
	c0.46,0.34,1.067,0.515,1.812,0.515c0.745,0,1.334-0.175,1.785-0.515c0.46-0.35,0.791-0.856,1.003-1.536s0.322-1.518,0.322-2.512
	s-0.11-1.84-0.322-2.512c-0.212-0.662-0.552-1.168-1.012-1.5c-0.46-0.331-1.067-0.506-1.812-0.506c-1.095,0-1.895,0.377-2.383,1.132
	c-0.497,0.754-0.745,1.877-0.745,3.386L162.783,14.629z"/>
<linearGradient id="SVGID_00000142871952874874519580000005601853552093249968_" gradientUnits="userSpaceOnUse" x1="192.243" y1="10.3439" x2="71.9382" y2="10.3439" gradientTransform="matrix(1 0 0 -1 0 25)">
	<stop  offset="0" style="stop-color:#FC7D01"/>
	<stop  offset="1" style="stop-color:#FE5805"/>
	<stop  offset="1" style="stop-color:#000000"/>
</linearGradient>
<path style="fill:url(#SVGID_00000142871952874874519580000005601853552093249968_);" d="M187.321,17.738
	c0,1.03-0.239,1.904-0.727,2.622c-0.488,0.708-1.205,1.251-2.171,1.619c-0.957,0.368-2.162,0.552-3.588,0.552
	c-1.058,0-1.969-0.064-2.723-0.202c-0.754-0.138-1.518-0.359-2.291-0.681v-3.423c0.828,0.368,1.711,0.681,2.659,0.92
	c0.948,0.239,1.776,0.359,2.493,0.359c0.81,0,1.38-0.12,1.73-0.359c0.35-0.239,0.524-0.552,0.524-0.948
	c0-0.258-0.074-0.478-0.212-0.69c-0.138-0.202-0.442-0.432-0.902-0.69c-0.46-0.258-1.187-0.598-2.18-1.012
	c-0.948-0.396-1.73-0.8-2.346-1.214c-0.616-0.414-1.067-0.892-1.362-1.444c-0.294-0.561-0.442-1.27-0.442-2.125
	c0-1.408,0.543-2.466,1.638-3.174c1.095-0.708,2.558-1.067,4.389-1.067c0.938,0,1.84,0.092,2.696,0.285
	c0.856,0.193,1.739,0.497,2.65,0.911l-1.251,2.99c-0.754-0.322-1.463-0.589-2.125-0.8c-0.662-0.212-1.343-0.313-2.033-0.313
	c-0.607,0-1.067,0.083-1.371,0.248c-0.304,0.166-0.46,0.414-0.46,0.745c0,0.248,0.083,0.46,0.239,0.653
	c0.156,0.193,0.469,0.405,0.92,0.635c0.46,0.23,1.132,0.524,2.024,0.892c0.865,0.35,1.61,0.727,2.245,1.104
	c0.635,0.386,1.122,0.865,1.472,1.426c0.35,0.57,0.515,1.297,0.515,2.199L187.321,17.738z"/>
</svg>
